{"title":"Kara's Flowers - The Fourth World [1997] [FLAC][EAC]","uid":6918708,"size":276021773,"categoryP":"audio","categoryS":"flac","magnet":"?xt=urn:btih:d566d543b20acb62164f544f30300d7ec978fb41&amp;dn=Kara%5C%27s+Flowers+-+The+Fourth+World+%5B1997%5D+%5BFLAC%5D%5BEAC%5D&amp;tr=udp%3A%2F%2Ftracker.openbittorrent.com%3A80&amp;tr=udp%3A%2F%2Fopen.demonii.com%3A1337&amp;tr=udp%3A%2F%2Ftracker.coppersurfer.tk%3A6969&amp;tr=udp%3A%2F%2Fexodus.desync.com%3A6969","seeders":2,"leechers":0,"uploader":"gianfrancobrionesdy","files":14,"time":1325130594,"description":"01 - Soap Disco\n02 - Future Kid\n03 - Myself\n04 - Oliver\n05 - The Never Saga\n06 - Loving The Small Time\n07 - To Her, With Love\n08 - Sleepy Windbreaker\n09 - Pantry Queen\n10 - My Blue Ocean\n11 - Captain Splendid\n\nExact Audio Copy V0.99 prebeta 5 from 4. May 2009\nEAC extraction logfile from 5. March 2010, 9:57\nKara's Flowers / The Fourth World\nUsed drive  : Optiarc DVD RW AD-7561S   Adapter: 1  ID: 0\nRead mode               : Secure\nUtilize accurate stream : Yes\nDefeat audio cache      : Yes\nMake use of C2 pointers : No\nRead offset correction                      : 6\nOverread into Lead-In and Lead-Out          : No\nFill up missing offset samples with silence : Yes\nDelete leading and trailing silent blocks   : No\nNull samples used in CRC calculations       : Yes\nUsed interface                              : Native Win32 interface for Win NT &amp; 2000\nGap handling                                : Appended to previous track\nUsed output format              : User Defined Encoder\nSelected bitrate                : 128 kBit/s\nQuality                         : High\nAdd ID3 tag                     : No\nCommand line compressor         : C:\\Program Files\\FLAC\\flac.exe\nAdditional command line options : -V -8 -T &quot;artist=%a&quot; -T &quot;title=%t&quot; -T &quot;album=%g&quot; -T &quot;date=%y&quot; -T &quot;tracknumber=%n&quot; -T &quot;genre=%m&quot; %s\nTOC of the extracted CD\n     Track |   Start  |  Length  | Start sector | End sector\n    ---------------------------------------------------------\n        1  |  0:00.00 |  2:40.05 |         0    |    12004\n        2  |  2:40.05 |  4:44.00 |     12005    |    33304\n        3  |  7:24.05 |  3:06.05 |     33305    |    47259\n        4  | 10:30.10 |  2:38.30 |     47260    |    59139\n        5  | 13:08.40 |  3:58.20 |     59140    |    77009\n        6  | 17:06.60 |  3:33.20 |     77010    |    93004\n        7  | 20:40.05 |  2:52.30 |     93005    |   105934\n        8  | 23:32.35 |  3:05.17 |    105935    |   119826\n        9  | 26:37.52 |  3:45.55 |    119827    |   136756\n       10  | 30:23.32 |  3:11.40 |    136757    |   151121\n       11  | 33:34.72 |  5:59.25 |    151122    |   178071\nTrack  1\n     Filename C:\\EAC Rips\\01. Soap Disco.wav\n     Pre-gap length  0:00:02.00\n     Peak level 97.9 %\n     Track quality 99.9 %\n     Test CRC E42FFE18\n     Copy CRC E42FFE18\n     Accurately ripped (confidence 3)  [B0AC9727]\n     Copy OK\nTrack  2\n     Filename C:\\EAC Rips\\02. Future Kid.wav\n     Pre-gap length  0:00:00.24\n     Peak level 100.0 %\n     Track quality 100.0 %\n     Test CRC 59505077\n     Copy CRC 59505077\n     Accurately ripped (confidence 3)  [30EC0811]\n     Copy OK\nTrack  3\n     Filename C:\\EAC Rips\\03. Myself.wav\n     Pre-gap length  0:00:00.50\n     Peak level 100.0 %\n     Track quality 100.0 %\n     Test CRC DA21A4EA\n     Copy CRC DA21A4EA\n     Accurately ripped (confidence 3)  [554E4CC7]\n     Copy OK\nTrack  4\n     Filename C:\\EAC Rips\\04. Oliver.wav\n     Pre-gap length  0:00:01.10\n     Peak level 100.0 %\n     Track quality 99.9 %\n     Test CRC 7965431C\n     Copy CRC 7965431C\n     Accurately ripped (confidence 3)  [CD6B3BE3]\n     Copy OK\nTrack  5\n     Filename C:\\EAC Rips\\05. The Never Saga.wav\n     Peak level 99.7 %\n     Track quality 100.0 %\n     Test CRC A27238BF\n     Copy CRC A27238BF\n     Accurately ripped (confidence 3)  [D9E0606D]\n     Copy OK\nTrack  6\n     Filename C:\\EAC Rips\\06. Loving The Small Time.wav\n     Pre-gap length  0:00:00.70\n     Peak level 100.0 %\n     Track quality 100.0 %\n     Test CRC 49904704\n     Copy CRC 49904704\n     Accurately ripped (confidence 3)  [57294D0C]\n     Copy OK\nTrack  7\n     Filename C:\\EAC Rips\\07. To Her, With Love.wav\n     Pre-gap length  0:00:00.90\n     Peak level 73.0 %\n     Track quality 100.0 %\n     Test CRC 94475D4B\n     Copy CRC 94475D4B\n     Accurately ripped (confidence 3)  [EA611153]\n     Copy OK\nTrack  8\n     Filename C:\\EAC Rips\\08. Sleepy Windbreaker.wav\n     Pre-gap length  0:00:00.13\n     Peak level 99.5 %\n     Track quality 100.0 %\n     Test CRC 3B146196\n     Copy CRC 3B146196\n     Accurately ripped (confidence 3)  [A14C3B10]\n     Copy OK\nTrack  9\n     Filename C:\\EAC Rips\\09. Pantry Queen.wav\n     Peak level 100.0 %\n     Track quality 100.0 %\n     Test CRC AACCA2C5\n     Copy CRC AACCA2C5\n     Accurately ripped (confidence 3)  [1B689E35]\n     Copy OK\nTrack 10\n     Filename C:\\EAC Rips\\10. My Ocean Blue.wav\n     Peak level 100.0 %\n     Track quality 100.0 %\n     Test CRC 8A0822D3\n     Copy CRC 8A0822D3\n     Accurately ripped (confidence 3)  [58C52D19]\n     Copy OK\nTrack 11\n     Filename C:\\EAC Rips\\11. Captain Splendid.wav\n     Pre-gap length  0:00:00.16\n     Peak level 100.0 %\n     Track quality 100.0 %\n     Test CRC 66290FF6\n     Copy CRC 66290FF6\n     Accurately ripped (confidence 3)  [508F55F6]\n     Copy OK\nAll tracks accurately ripped\nNo errors occurred\n","torrent":{"xt":"urn:btih:d566d543b20acb62164f544f30300d7ec978fb41","amp;dn":"Kara%5C%27s+Flowers+-+The+Fourth+World+%5B1997%5D+%5BFLAC%5D%5BEAC%5D","amp;tr":["udp%3A%2F%2Ftracker.openbittorrent.com%3A80","udp%3A%2F%2Fopen.demonii.com%3A1337","udp%3A%2F%2Ftracker.coppersurfer.tk%3A6969","udp%3A%2F%2Fexodus.desync.com%3A6969"],"infoHash":"d566d543b20acb62164f544f30300d7ec978fb41","infoHashBuffer":{"type":"Buffer","data":[213,102,213,67,178,10,203,98,22,79,84,79,48,48,13,126,201,120,251,65]},"announce":[],"urlList":[]}}